<svg width="33" height="32" viewBox="0 0 33 32" fill="none" xmlns="http://www.w3.org/2000/svg">
<path fill-rule="evenodd" clip-rule="evenodd" d="M11.1208 3C11.6306 3 12.0439 3.41328 12.0439 3.92308V4.84615H21.2747V3.92308C21.2747 3.41328 21.688 3 22.1978 3C22.7075 3 23.1208 3.41328 23.1208 3.92308V4.84615H25.8901C27.4194 4.84615 28.6593 6.08597 28.6593 7.61538V24.2308C28.6593 25.7601 27.4194 27 25.8901 27H7.42853C5.89912 27 4.6593 25.7601 4.6593 24.2308V7.61538C4.6593 6.08597 5.89912 4.84615 7.42853 4.84615H10.1978V3.92308C10.1978 3.41328 10.611 3 11.1208 3ZM21.2747 6.69231V7.61538C21.2747 8.12518 21.688 8.53846 22.1978 8.53846C22.7075 8.53846 23.1208 8.12518 23.1208 7.61538V6.69231H25.8901C26.3998 6.69231 26.8131 7.10559 26.8131 7.61538V10.3846H6.50545V7.61538C6.50545 7.10559 6.91873 6.69231 7.42853 6.69231H10.1978V7.61538C10.1978 8.12518 10.611 8.53846 11.1208 8.53846C11.6306 8.53846 12.0439 8.12518 12.0439 7.61538V6.69231H21.2747ZM6.50545 12.2308V24.2308C6.50545 24.7405 6.91873 25.1538 7.42853 25.1538H25.8901C26.3998 25.1538 26.8131 24.7405 26.8131 24.2308V12.2308H6.50545ZM15.7362 15C15.7362 14.4902 16.1495 14.0769 16.6593 14.0769C17.1691 14.0769 17.5824 14.4902 17.5824 15C17.5824 15.5098 17.1691 15.9231 16.6593 15.9231C16.1495 15.9231 15.7362 15.5098 15.7362 15ZM20.3516 14.0769C19.8418 14.0769 19.4285 14.4902 19.4285 15C19.4285 15.5098 19.8418 15.9231 20.3516 15.9231C20.8614 15.9231 21.2747 15.5098 21.2747 15C21.2747 14.4902 20.8614 14.0769 20.3516 14.0769ZM23.1208 15C23.1208 14.4902 23.5342 14.0769 24.0439 14.0769C24.5536 14.0769 24.967 14.4902 24.967 15C24.967 15.5098 24.5536 15.9231 24.0439 15.9231C23.5342 15.9231 23.1208 15.5098 23.1208 15ZM24.0439 17.7692C23.5342 17.7692 23.1208 18.1825 23.1208 18.6923C23.1208 19.2021 23.5342 19.6154 24.0439 19.6154C24.5536 19.6154 24.967 19.2021 24.967 18.6923C24.967 18.1825 24.5536 17.7692 24.0439 17.7692ZM19.4285 18.6923C19.4285 18.1825 19.8418 17.7692 20.3516 17.7692C20.8614 17.7692 21.2747 18.1825 21.2747 18.6923C21.2747 19.2021 20.8614 19.6154 20.3516 19.6154C19.8418 19.6154 19.4285 19.2021 19.4285 18.6923ZM16.6593 17.7692C16.1495 17.7692 15.7362 18.1825 15.7362 18.6923C15.7362 19.2021 16.1495 19.6154 16.6593 19.6154C17.1691 19.6154 17.5824 19.2021 17.5824 18.6923C17.5824 18.1825 17.1691 17.7692 16.6593 17.7692ZM12.0439 18.6923C12.0439 18.1825 12.4572 17.7692 12.967 17.7692C13.4768 17.7692 13.8901 18.1825 13.8901 18.6923C13.8901 19.2021 13.4768 19.6154 12.967 19.6154C12.4572 19.6154 12.0439 19.2021 12.0439 18.6923ZM9.27468 17.7692C8.76489 17.7692 8.35161 18.1825 8.35161 18.6923C8.35161 19.2021 8.76489 19.6154 9.27468 19.6154C9.78448 19.6154 10.1978 19.2021 10.1978 18.6923C10.1978 18.1825 9.78448 17.7692 9.27468 17.7692ZM8.35161 22.3846C8.35161 21.8749 8.76489 21.4615 9.27468 21.4615C9.78448 21.4615 10.1978 21.8749 10.1978 22.3846C10.1978 22.8943 9.78448 23.3077 9.27468 23.3077C8.76489 23.3077 8.35161 22.8943 8.35161 22.3846ZM12.967 21.4615C12.4572 21.4615 12.0439 21.8749 12.0439 22.3846C12.0439 22.8943 12.4572 23.3077 12.967 23.3077C13.4768 23.3077 13.8901 22.8943 13.8901 22.3846C13.8901 21.8749 13.4768 21.4615 12.967 21.4615ZM15.7362 22.3846C15.7362 21.8749 16.1495 21.4615 16.6593 21.4615C17.1691 21.4615 17.5824 21.8749 17.5824 22.3846C17.5824 22.8943 17.1691 23.3077 16.6593 23.3077C16.1495 23.3077 15.7362 22.8943 15.7362 22.3846ZM20.3516 21.4615C19.8418 21.4615 19.4285 21.8749 19.4285 22.3846C19.4285 22.8943 19.8418 23.3077 20.3516 23.3077C20.8614 23.3077 21.2747 22.8943 21.2747 22.3846C21.2747 21.8749 20.8614 21.4615 20.3516 21.4615Z" fill="#454545"/>
</svg>
