<svg xmlns="http://www.w3.org/2000/svg" xmlns:xlink="http://www.w3.org/1999/xlink" width="219.432" height="59.858" viewBox="0 0 219.432 59.858">
  <defs>
    <style>
      .cls-1 {
        fill: #FFFFFF;
      }

      .cls-2 {
        opacity: 1;
      }

      .cls-3 {
        clip-path: url(#clip-path);
      }
    </style>
    <clipPath id="clip-path">
      <path id="Path_18375" data-name="Path 18375" class="cls-1" d="M0-14.082H219.432V-73.94H0Z" transform="translate(0 73.94)"/>
    </clipPath>
  </defs>
  <g id="Group_7062" data-name="Group 7062" class="cls-2" transform="translate(0 78.94)">
    <g id="Group_7061" data-name="Group 7061" class="cls-3" transform="translate(0 -78.94)">
      <g id="Group_7053" data-name="Group 7053" transform="translate(28.208 11.231)">
        <path id="Path_18367" data-name="Path 18367" class="cls-1" d="M-2.787-5.222c-.112-3.152-.375-9.834-.061-15.489a17.668,17.668,0,0,1,1-5.613l-.628-1.095a49.969,49.969,0,0,1-12.16,4.448l.263,1.682c1.146-.263,2.727-.578,3.507-.74,2.047-.365,2.888.527,2.989,3.041.213,4.772.152,10.614.051,13.766C-7.975-1.139-9.87.7-12.7.7V2.115c1.52,0,3.83-.264,7.387-.264s5.877.264,7.4.264V.7C-.75.7-2.635-1.139-2.787-5.222" transform="translate(14.633 27.419)"/>
      </g>
      <g id="Group_7054" data-name="Group 7054" transform="translate(46.143 12.088)">
        <path id="Path_18368" data-name="Path 18368" class="cls-1" d="M-4.246-4.693C-8.113-7.408-14.823-10.4-14.823-15.417a7.21,7.21,0,0,1,7.4-7.259c5.357,0,8.686,3.73,8.686,9.086,0,4.142-1.664,6.384-4.179,9.1C1.309-6.422,5.6-8.9,5.6-14.329,5.6-21.388-.442-24.642-6.75-24.642c-6.657,0-13.578,3.656-13.578,11.126,0,5.22,5.769,9.087,9.3,11.4C-6.211,1.816,3.088,5.408,3.088,12.678c0,5.631-5.019,8.548-9.436,8.548-7.322,0-10.851-5.431-10.851-12.289,0-4.47,2.816-7.665,6.007-10.106-4.046.725-11.1,5.161-11.1,11.87,0,8.21,7.334,12.427,14.93,12.427,8.146,0,15.469-4.28,15.469-13.166C8.106,3.242.1-1.576-4.246-4.693" transform="translate(22.293 24.642)"/>
      </g>
      <g id="Group_7055" data-name="Group 7055" transform="translate(0 12.838)">
        <path id="Path_18369" data-name="Path 18369" class="cls-1" d="M-3.7-6.224c-6.118,0-10.44-5.526-9.89-13.778,3.223-.158,12.342-.105,20.055,0C6.408-27.209,1.812-32.682-5.891-32.682c-8.094,0-13.556,6.783-13.556,14.317A14.177,14.177,0,0,0-4.855-3.984c4.807,0,8.527-2.187,10.333-4.808l-1.2-1.046A10.609,10.609,0,0,1-3.7-6.224m-2.621-24.7c3.825,0,7.206,3,7.206,8.58-3,.222-11.368.275-14.369.106.274-4.1,2.62-8.686,7.164-8.686" transform="translate(19.447 32.682)"/>
      </g>
      <g id="Group_7056" data-name="Group 7056" transform="translate(186.202 12.785)">
        <path id="Path_18370" data-name="Path 18370" class="cls-1" d="M-6.751-4.822c-.116-3.286-.116-5.409-.116-9.234,0-7.6-3.329-11.264-10-11.264-4.269,0-7.6,2.357-8.686,4.375h-.221l.158-4.206a69.036,69.036,0,0,1-9.837,1.585l.169,1.469c.877-.106,1.806-.211,2.293-.211,2.081,0,2.187,2.071,2.187,9.393,0,3.392,0,4.808-.106,8.094-.169,4.258-1.046,6.17-4.543,6.17v1.48c1.584,0,3.888-.274,7.058-.274s4.967.274,6.552.274V1.348c-3.381,0-3.709-1.912-3.879-6.17-.105-3.286-.105-4.808-.105-8.094v-2.568a7.241,7.241,0,0,1,7.534-7.269c4.047,0,6.4,2.789,6.4,9.837,0,3.286,0,4.808-.117,8.094-.158,4.258-.486,6.17-3.877,6.17v1.48c1.584,0,3.444-.274,6.614-.274s5.463.274,7.048.274V1.348c-3.5,0-4.375-1.912-4.533-6.17" transform="translate(35.449 25.321)"/>
      </g>
      <g id="Group_7057" data-name="Group 7057" transform="translate(129.823 12.837)">
        <path id="Path_18371" data-name="Path 18371" class="cls-1" d="M-6.093-2.983c-.053-7.207-4.639-12.68-12.341-12.68-8.094,0-13.557,6.784-13.557,14.318A14.178,14.178,0,0,0-17.4,13.035c4.808,0,8.528-2.187,10.323-4.808L-8.269,7.182A10.631,10.631,0,0,1-16.247,10.8c-6.118,0-10.439-5.527-9.89-13.778,3.224-.159,12.342-.105,20.044,0M-18.867-13.909c3.824,0,7.206,3,7.206,8.58-3,.222-11.369.275-14.37.106.274-4.1,2.621-8.686,7.164-8.686" transform="translate(31.991 15.663)"/>
      </g>
      <g id="Group_7058" data-name="Group 7058" transform="translate(77.102 0)">
        <path id="Path_18372" data-name="Path 18372" class="cls-1" d="M-6.749-7.83c-.159-3.286-.159-5.3-.106-10.006,0-6.773-3.93-10.493-10.059-10.493-5.949,0-8.189,3.614-8.739,4.7h-.221c0-3.5,0-6.5.053-7.7.168-4.269.327-7.216.549-9.784A94.962,94.962,0,0,1-35.32-39.8l.106,1.48c1.256-.117,2.07-.169,2.514-.169,1.743,0,1.584,2.895,1.743,7.164.169,3.276.169,20.214,0,23.5-.211,4.258-.983,6.17-4.48,6.17V-.18c1.585,0,3.666-.274,7.048-.274,3.339,0,4.924.274,6.509.274V-1.66c-3.392,0-3.772-1.912-3.941-6.17-.053-1.479-.053-5.737-.053-10.281.274-4.807,2.736-7.649,6.994-7.649,4.047,0,6.994,3.011,6.994,8.971,0,4.152.053,5.674-.105,8.96-.169,4.258-.5,6.17-3.878,6.17V-.18c1.585,0,3.381-.274,6.667-.274,3.117,0,5.409.274,6.994.274V-1.66c-3.5,0-4.375-1.912-4.543-6.17" transform="translate(35.437 41.114)"/>
      </g>
      <g id="Group_7059" data-name="Group 7059" transform="translate(158.555 12.837)">
        <path id="Path_18373" data-name="Path 18373" class="cls-1" d="M-6.093-2.983c-.053-7.207-4.639-12.68-12.342-12.68-8.094,0-13.557,6.784-13.557,14.318A14.171,14.171,0,0,0-17.4,13.035c4.808,0,8.527-2.187,10.323-4.808L-8.27,7.182A10.631,10.631,0,0,1-16.248,10.8c-6.127,0-10.439-5.527-9.9-13.778,3.233-.159,12.352-.105,20.055,0M-18.878-13.909c3.824,0,7.216,3,7.216,8.58-3.011.222-11.369.275-14.37.106.275-4.1,2.621-8.686,7.154-8.686" transform="translate(31.991 15.663)"/>
      </g>
      <g id="Group_7060" data-name="Group 7060" transform="translate(109.239 5.959)">
        <path id="Path_18374" data-name="Path 18374" class="cls-1" d="M-3.637-7.766c-2.778,0-4.691-2.029-4.967-4.924a78.981,78.981,0,0,1-.38-8.855c-.063-4.427,0-7.6.159-9.774h8.58v-1.86h-8.58c-.053-2.082-.105-4.6,0-7.6H-10.9c-.983,6.826-3.445,7.65-8.2,8.083v1.374h4.913c.169,2.177.328,5.346.274,9.774-.053,3.994-.105,4.977-.158,9.288-.064,3.941,2.948,6.667,7.755,6.667A10.7,10.7,0,0,0,.527-7.713l-.666-1.1a7,7,0,0,1-3.5,1.046" transform="translate(19.095 40.775)"/>
      </g>
    </g>
  </g>
</svg>
