<svg width="49" height="76" viewBox="0 0 49 76" fill="none" xmlns="http://www.w3.org/2000/svg">
<path d="M14.0607 31.9393C13.4749 31.3536 12.5251 31.3536 11.9393 31.9393C11.3536 32.5251 11.3536 33.4749 11.9393 34.0607L14.0607 31.9393ZM23.4393 45.5607L24.5 46.6213L26.6213 44.5L25.5607 43.4393L23.4393 45.5607ZM11.9393 34.0607L23.4393 45.5607L25.5607 43.4393L14.0607 31.9393L11.9393 34.0607Z" fill="white" fill-opacity="0.5"/>
<path d="M37.0607 34.182C37.6464 33.5962 37.6464 32.6465 37.0607 32.0607C36.4749 31.4749 35.5251 31.4749 34.9393 32.0607L37.0607 34.182ZM23.4393 43.5607L22.3787 44.6213L24.5 46.7427L25.5607 45.682L23.4393 43.5607ZM34.9393 32.0607L23.4393 43.5607L25.5607 45.682L37.0607 34.182L34.9393 32.0607Z" fill="white" fill-opacity="0.5"/>
<rect x="2" y="2" width="45" height="72" rx="18" stroke="white" stroke-opacity="0.5" stroke-width="4"/>
</svg>
