<svg width="100%" height="100%" viewBox="0 0 16 16" fill="none" xmlns="http://www.w3.org/2000/svg">
<path d="M3.61253 5.26245H0.269257V15.9239H3.61253V5.26245Z" fill="currentColor"></path>
<path d="M12.6567 5.03024C12.5335 5.01483 12.4025 5.00713 12.2716 4.99942C10.3996 4.92239 9.34429 6.03167 8.97453 6.50928C8.87438 6.64023 8.82816 6.71727 8.82816 6.71727V5.29215H5.63126V15.9536H8.82816H8.97453C8.97453 14.8674 8.97453 13.7889 8.97453 12.7028C8.97453 12.1173 8.97453 11.5319 8.97453 10.9464C8.97453 10.2223 8.9206 9.45196 9.28266 8.78947C9.5908 8.23483 10.1454 7.95751 10.7694 7.95751C12.6182 7.95751 12.6567 9.62913 12.6567 9.7832C12.6567 9.7909 12.6567 9.79861 12.6567 9.79861V15.9998H16V9.04368C16 6.66335 14.7906 5.26134 12.6567 5.03024Z" fill="currentColor"></path>
<path d="M1.94125 3.88249C3.01337 3.88249 3.88251 3.01336 3.88251 1.94124C3.88251 0.869124 3.01337 0 1.94125 0C0.869125 0 0 0.869124 0 1.94124C0 3.01336 0.869125 3.88249 1.94125 3.88249Z" fill="currentColor"></path>
</svg>