<svg width="100%" height="100%" viewBox="0 0 16 13" fill="none" xmlns="http://www.w3.org/2000/svg">
<path d="M16 2.18473L14.5455 1.82111L15.2727 0.366668L13.4807 0.875724C13.0155 0.441709 12.4333 0.153409 11.8061 0.0464068C11.1789 -0.0605954 10.534 0.0183829 9.9512 0.273594C9.36835 0.528806 8.87298 0.94908 8.52624 1.48255C8.1795 2.01602 7.99656 2.63933 8 3.27556V4.00278C5.42618 4.53366 3.17527 3.13012 1.09091 0.730279C0.727273 2.66954 1.09091 4.12399 2.18182 5.09362L0 4.73001C0.294545 6.23463 0.990545 7.42073 2.90909 7.6389L1.09091 8.36612C1.81818 9.82057 2.95709 10.046 4.72727 10.1842C3.35049 11.1678 1.69166 11.6782 0 11.6386C9.27636 15.7613 14.5455 9.7013 14.5455 4.36639V3.40064L16 2.18473Z" fill="currentColor"></path>
</svg>