<svg width="100%" height="100%" viewBox="0 0 16 17" fill="none" xmlns="http://www.w3.org/2000/svg">
<path d="M15.6663 5.12616C15.6664 4.82512 15.6072 4.527 15.4921 4.24885C15.3769 3.97069 15.2081 3.71795 14.9953 3.50504C14.7824 3.29214 14.5297 3.12325 14.2516 3.00803C13.9735 2.8928 13.6754 2.8335 13.3743 2.8335H2.62434C2.32335 2.83358 2.02533 2.89295 1.74728 3.00822C1.46924 3.12348 1.21662 3.29238 1.00385 3.50528C0.791078 3.71817 0.622324 3.97089 0.507221 4.249C0.392118 4.52711 0.332921 4.82517 0.333008 5.12616V11.2068C0.332833 11.5079 0.391966 11.806 0.50703 12.0842C0.622093 12.3624 0.790834 12.6152 1.00361 12.8281C1.21639 13.0411 1.46904 13.2101 1.74713 13.3254C2.02522 13.4407 2.3233 13.5001 2.62434 13.5002H13.3743C13.6754 13.5002 13.9736 13.4408 14.2518 13.3256C14.5299 13.2103 14.7827 13.0414 14.9955 12.8284C15.2084 12.6154 15.3772 12.3626 15.4923 12.0843C15.6074 11.8061 15.6665 11.5079 15.6663 11.2068V5.12616ZM6.33301 10.7928V5.0195L10.8457 7.90683L6.33301 10.7928Z" fill="currentColor"></path>
</svg>